<svg xmlns="http://www.w3.org/2000/svg" version="1.1" xmlns:xlink="http://www.w3.org/1999/xlink" xmlns:svgjs="http://svgjs.dev/svgjs" width="1500" height="935" viewBox="0 0 1500 935"><g transform="matrix(1,0,0,1,-0.9090909090909918,6.755982088087308)"><svg viewBox="0 0 396 247" data-background-color="#ffffff" preserveAspectRatio="xMidYMid meet" height="935" width="1500" xmlns="http://www.w3.org/2000/svg" xmlns:xlink="http://www.w3.org/1999/xlink"><g id="tight-bounds" transform="matrix(1,0,0,1,0.2400000000000091,-0.09999999999999432)"><svg viewBox="0 0 395.52 247.2" height="247.2" width="395.52"><g><svg></svg></g><g><svg viewBox="0 0 395.52 247.2" height="247.2" width="395.52"><g transform="matrix(1,0,0,1,104.16947062566064,47.215199999999996)"><svg viewBox="0 0 187.1810587486787 152.7696" height="152.7696" width="187.1810587486787"><g><svg viewBox="0 0 244.43135999999998 199.49497745278452" height="152.7696" width="187.1810587486787"><g transform="matrix(1,0,0,1,0,119.92512307011842)"><svg viewBox="0 0 244.43135999999998 79.56985438266611" height="79.56985438266611" width="244.43135999999998"><g id="textblocktransform"><svg viewBox="0 0 244.43135999999998 79.56985438266611" height="79.56985438266611" width="244.43135999999998" id="textblock"><g><svg viewBox="0 0 244.43135999999998 42.188042466298334" height="42.188042466298334" width="244.43135999999998"><g transform="matrix(1,0,0,1,0,0)"><svg width="244.43135999999998" viewBox="2.25 -38.5 226.24 39.05" height="42.188042466298334" data-palette-color="#6936f5"><path d="M27.3-8.95L27.5-8.95 40.5-38.5 51.7-38.5 51.7-36.6Q50.1-36.55 49.13-36.2 48.15-35.85 47.63-35.02 47.1-34.2 46.93-32.75 46.75-31.3 46.75-29.05L46.75-29.05 46.75-9.45Q46.75-6.95 46.95-5.5 47.15-4.05 47.73-3.25 48.3-2.45 49.38-2.2 50.45-1.95 52.2-1.9L52.2-1.9 52.2 0 36 0 36-1.9Q37.75-1.95 38.83-2.23 39.9-2.5 40.5-3.25 41.1-4 41.3-5.38 41.5-6.75 41.5-9.1L41.5-9.1 41.5-32.3 41-32.3 26.4 0.5 25.3 0.5 10.95-32.3 10.75-32.3 10.75-9.45Q10.75-6.95 10.95-5.5 11.15-4.05 11.73-3.25 12.3-2.45 13.38-2.2 14.45-1.95 16.2-1.9L16.2-1.9 16.2 0 2.25 0 2.25-1.9Q4-1.95 5.08-2.23 6.15-2.5 6.75-3.25 7.35-4 7.55-5.38 7.75-6.75 7.75-9.1L7.75-9.1 7.75-29.4Q7.75-31.5 7.58-32.88 7.4-34.25 6.88-35.05 6.35-35.85 5.35-36.18 4.35-36.5 2.75-36.6L2.75-36.6 2.75-38.5 14.7-38.5 27.3-8.95ZM71.95-10.85L71.95-14.8Q69.1-13.7 67.12-12.65 65.15-11.6 63.95-10.55 62.75-9.5 62.22-8.45 61.7-7.4 61.7-6.3L61.7-6.3Q61.7-4.65 62.8-3.6 63.9-2.55 65.7-2.55L65.7-2.55Q67-2.55 68.12-3.2 69.25-3.85 70.1-4.98 70.95-6.1 71.45-7.63 71.95-9.15 71.95-10.85L71.95-10.85ZM64.75-13.8L71.95-16.95 71.95-19Q71.95-25.1 66.75-25.1L66.75-25.1Q65.9-25.1 65.3-24.95 64.7-24.8 64.3-24.45 63.9-24.1 63.57-23.45 63.25-22.8 62.95-21.85L62.95-21.85Q62.4-20.4 61.87-19.93 61.35-19.45 60.35-19.45L60.35-19.45Q57.85-19.45 57.85-21.95L57.85-21.95Q57.85-24.35 60.4-25.68 62.95-27 67.65-27L67.65-27Q72.65-27 74.75-25.23 76.85-23.45 76.85-19.2L76.85-19.2 76.85-8Q76.85-2.3 79.1-2.3L79.1-2.3Q79.8-2.3 80.45-2.48 81.1-2.65 81.55-3.4L81.55-3.4 82.25-2.2Q81.65-1.05 80.05-0.28 78.45 0.5 76.7 0.5L76.7 0.5Q74.5 0.5 73.42-0.9 72.35-2.3 72.35-4.85L72.35-4.85 72.1-4.85Q70.8-2.4 68.5-0.98 66.2 0.45 63.4 0.45L63.4 0.45Q60.25 0.45 58.45-1.15 56.65-2.75 56.65-5.45L56.65-5.45Q56.65-6.65 57.07-7.75 57.5-8.85 58.45-9.85 59.4-10.85 60.95-11.83 62.5-12.8 64.75-13.8L64.75-13.8ZM95.2-35.5L95.2-21.15Q97.9-21.15 99.72-21.48 101.55-21.8 102.62-22.5 103.7-23.2 104.17-24.3 104.65-25.4 104.65-26.9L104.65-26.9 106.4-26.9 106.4-13.25 104.65-13.25Q104.65-14.75 104.22-15.85 103.8-16.95 102.72-17.68 101.65-18.4 99.82-18.78 98-19.15 95.2-19.15L95.2-19.15 95.2-7.85Q95.2-6.2 95.6-5.13 96-4.05 96.97-3.38 97.95-2.7 99.55-2.43 101.15-2.15 103.5-2.15L103.5-2.15Q106.15-2.15 108-2.53 109.85-2.9 111.1-3.8 112.35-4.7 113.1-6.18 113.85-7.65 114.34-9.85L114.34-9.85 116.25-9.85 115.5 0 84.45 0 84.45-1.9Q86.2-1.95 87.27-2.2 88.35-2.45 88.95-3.05 89.55-3.65 89.75-4.75 89.95-5.85 89.95-7.6L89.95-7.6 89.95-30.9Q89.95-32.65 89.77-33.73 89.6-34.8 89.07-35.43 88.55-36.05 87.55-36.27 86.55-36.5 84.95-36.6L84.95-36.6 84.95-38.5 113.85-38.5 114.3-29.7 112.55-29.7Q112.25-31.7 111.57-32.98 110.9-34.25 109.72-35 108.55-35.75 106.75-36.05 104.95-36.35 102.4-36.35L102.4-36.35 96.05-36.35Q95.2-36.35 95.2-35.5L95.2-35.5ZM131.19 0.55L122.74-20.3Q122.14-21.8 121.67-22.68 121.19-23.55 120.64-24 120.09-24.45 119.42-24.58 118.74-24.7 117.79-24.75L117.79-24.75 117.79-26.5 131.04-26.5 131.04-24.75Q130.04-24.7 129.39-24.65 128.74-24.6 128.37-24.43 127.99-24.25 127.84-23.93 127.69-23.6 127.69-23L127.69-23Q127.69-22.15 127.92-21.4 128.14-20.65 128.39-19.9L128.39-19.9 133.69-5.4 133.89-5.4 138.44-16.15Q139.49-18.65 139.94-20.15 140.39-21.65 140.39-22.8L140.39-22.8Q140.39-23.95 139.79-24.35 139.19-24.75 137.19-24.75L137.19-24.75 137.19-26.5 147.14-26.5 147.14-24.75Q146.34-24.75 145.69-24.35 145.04-23.95 144.54-23.35L144.54-23.35Q144.14-22.8 143.72-21.88 143.29-20.95 142.87-19.95 142.44-18.95 142.09-17.98 141.74-17 141.44-16.4L141.44-16.4 134.09 0.55 131.19 0.55ZM171.49-6.05L173.04-4.65Q168.79 0.5 162.49 0.5L162.49 0.5Q159.54 0.5 157.14-0.48 154.74-1.45 153.02-3.23 151.29-5 150.34-7.48 149.39-9.95 149.39-12.95L149.39-12.95Q149.39-16 150.39-18.6 151.39-21.2 153.22-23.05 155.04-24.9 157.57-25.95 160.09-27 163.09-27L163.09-27Q167.94-27 170.59-24.38 173.24-21.75 173.24-16.85L173.24-16.85Q173.24-16.15 172.97-16 172.69-15.85 171.69-15.85L171.69-15.85 155.24-15.85Q155.14-15.45 155.09-14.88 155.04-14.3 155.04-13.6L155.04-13.6Q155.04-11 155.67-8.88 156.29-6.75 157.47-5.25 158.64-3.75 160.27-2.93 161.89-2.1 163.89-2.1L163.89-2.1Q165.99-2.1 167.79-3.03 169.59-3.95 171.49-6.05L171.49-6.05ZM155.59-18.15L164.79-18.15Q165.79-18.15 166.39-18.2 166.99-18.25 167.29-18.4 167.59-18.55 167.69-18.82 167.79-19.1 167.79-19.55L167.79-19.55Q167.79-21.85 166.32-23.23 164.84-24.6 162.29-24.6L162.29-24.6Q156.89-24.6 155.59-18.15L155.59-18.15ZM186.39-14.55L186.39-7.85Q186.39-5.8 186.49-4.63 186.59-3.45 187.01-2.83 187.44-2.2 188.26-2 189.09-1.8 190.54-1.7L190.54-1.7 190.54 0 177.44 0 177.44-1.7Q178.84-1.8 179.66-2 180.49-2.2 180.94-2.8 181.39-3.4 181.51-4.5 181.64-5.6 181.64-7.5L181.64-7.5 181.64-14.15Q181.64-20.1 181.34-21.4L181.34-21.4Q181.19-22.05 180.96-22.48 180.74-22.9 180.29-23.13 179.84-23.35 179.14-23.43 178.44-23.5 177.34-23.5L177.34-23.5 177.34-25.1 185.34-27 185.94-22.05 186.14-22.05Q188.04-24.4 190.59-25.7 193.14-27 196.14-27L196.14-27Q198.44-27 200.34-26.25 202.24-25.5 203.24-24.2L203.24-24.2Q204.09-23.05 204.44-21.23 204.79-19.4 204.79-16.2L204.79-16.2 204.79-7.85Q204.79-5.8 204.91-4.63 205.04-3.45 205.44-2.83 205.84-2.2 206.66-2 207.49-1.8 208.84-1.7L208.84-1.7 208.84 0 195.89 0 195.89-1.7Q197.29-1.75 198.11-1.98 198.94-2.2 199.36-2.8 199.79-3.4 199.91-4.53 200.04-5.65 200.04-7.5L200.04-7.5 200.04-14.1Q200.04-16.95 199.74-18.9 199.44-20.85 198.76-22.05 198.09-23.25 196.99-23.78 195.89-24.3 194.34-24.3L194.34-24.3Q192.09-24.3 190.21-23.13 188.34-21.95 187.29-19.9L187.29-19.9Q187.04-19.4 186.86-18.95 186.69-18.5 186.59-17.9 186.49-17.3 186.44-16.53 186.39-15.75 186.39-14.55L186.39-14.55ZM215.04-23.35L212.04-23.35 212.04-25.2Q214.69-26.75 216.19-28.3 217.69-29.85 218.49-32L218.49-32 219.94-32 219.94-25.7 226.64-25.7 226.64-23.35 219.94-23.35 219.94-8.15Q219.94-6.4 220.11-5.2 220.29-4 220.69-3.28 221.09-2.55 221.74-2.25 222.39-1.95 223.39-1.95L223.39-1.95Q224.64-1.95 225.51-2.48 226.39-3 227.24-4.25L227.24-4.25 228.49-3.3Q227.79-1.45 226.06-0.48 224.34 0.5 221.79 0.5L221.79 0.5Q218.49 0.5 216.76-1.07 215.04-2.65 215.04-5.6L215.04-5.6 215.04-23.35Z" opacity="1" transform="matrix(1,0,0,1,0,0)" fill="#6936f5" class="wordmark-text-0" data-fill-palette-color="primary" id="text-0"></path></svg></g></svg></g><g transform="matrix(1,0,0,1,93.38815818455916,52.14762677957218)"><svg viewBox="0 0 57.65504363088168 27.42222760309392" height="27.42222760309392" width="57.65504363088168"><g transform="matrix(1,0,0,1,0,0)"><svg width="57.65504363088168" viewBox="1.3 -35.3 75.9 36.1" height="27.42222760309392" data-palette-color="#bb84e8"><path d="M41.8-34.1L37.45-33.7 37.45-0.8 41.8-0.4 41.8 0 29.5 0 29.5-0.4 33.6-0.8 33.6-31.25 33.4-31.25 21.35 0.8 20.85 0.8 7.4-31.3 7.2-31.3 7.2-3.05Q7.2-1.85 7.5-1.38 7.8-0.9 8.7-0.8L8.7-0.8 12.25-0.4 12.25 0 1.3 0 1.3-0.4 4.9-0.8Q5.8-0.9 6.1-1.38 6.4-1.85 6.4-3.05L6.4-3.05 6.4-33.05Q6.05-33.65 5.53-33.88 5-34.1 4-34.1L4-34.1 1.7-34.1 1.7-34.5 10.25-34.5 22.55-5.15 22.75-5.15 33.75-34.5 41.8-34.5 41.8-34.1ZM73.05-0.9L77.2-0.4 77.2 0 64.95 0 64.95-0.4 69.05-0.9 64.35-13.7 52.25-13.7 48.1-2.65Q47.9-2.1 47.9-1.75L47.9-1.75Q47.9-1.2 48.22-0.98 48.55-0.75 49.4-0.65L49.4-0.65 52.45-0.4 52.45 0 41.8 0 41.8-0.4 44.6-0.65Q45.85-0.75 46.37-1.15 46.9-1.55 47.3-2.65L47.3-2.65 59.55-35.3 60.45-35.3 73.05-0.9ZM52.55-14.5L64.05-14.5 58.45-29.75 58.25-29.75 52.55-14.5Z" opacity="1" transform="matrix(1,0,0,1,0,0)" fill="#bb84e8" class="slogan-text-1" data-fill-palette-color="secondary" id="text-1"></path></svg></g></svg></g></svg></g></svg></g><g transform="matrix(1,0,0,1,92.19095952031549,0)"><svg viewBox="0 0 60.04944095936902 109.96553875684457" height="109.96553875684457" width="60.04944095936902"><g><svg xmlns="http://www.w3.org/2000/svg" xmlns:xlink="http://www.w3.org/1999/xlink" version="1.1" x="0" y="0" viewBox="-217 376.9 48 87.90000000000003" style="enable-background:new -247 370.9 100 100;" xml:space="preserve" height="109.96553875684457" width="60.04944095936902" class="icon-icon-0" data-fill-palette-color="accent" id="icon-0"><g fill="#bb84e8" data-fill-palette-color="accent"><path d="M-176.5 464.8h-33c-4.1 0-7.5-3.4-7.5-7.5v-72.9c0-4.1 3.4-7.5 7.5-7.5h33c4.1 0 7.5 3.4 7.5 7.5v72.9C-169 461.5-172.4 464.8-176.5 464.8zM-209.5 377.9c-3.6 0-6.5 2.9-6.5 6.5v72.9c0 3.6 2.9 6.5 6.5 6.5h33c3.6 0 6.5-2.9 6.5-6.5v-72.9c0-3.6-2.9-6.5-6.5-6.5H-209.5zM-193 461.9c-2.6 0-4.7-2.1-4.7-4.7s2.1-4.7 4.7-4.7 4.7 2.1 4.7 4.7S-190.4 461.9-193 461.9zM-193 453.5c-2 0-3.7 1.7-3.7 3.7s1.7 3.7 3.7 3.7 3.7-1.7 3.7-3.7S-191 453.5-193 453.5zM-172.3 450.5h-41.3v-60.8h41.3V450.5zM-212.6 449.5h39.3v-58.8h-39.3V449.5zM-185.2 385.9h-15.5c-1 0-1.7-0.7-1.7-1.7s0.7-1.7 1.7-1.7h15.5c1 0 1.7 0.7 1.7 1.7S-184.2 385.9-185.2 385.9zM-200.7 383.5c-0.4 0-0.7 0.3-0.7 0.7s0.3 0.7 0.7 0.7h15.5c0.4 0 0.7-0.3 0.7-0.7s-0.3-0.7-0.7-0.7H-200.7z" fill="#bb84e8" data-fill-palette-color="accent"></path></g><path d="M-193 403.4c-1 0-1.8 0.8-1.8 1.8v5.6c0 1 0.8 1.8 1.8 1.8s1.8-0.8 1.8-1.8v-5.6C-191.1 404.3-191.9 403.4-193 403.4z" fill="#bb84e8" data-fill-palette-color="accent"></path><path d="M-201.1 403.4L-201.1 403.4c-1 0-1.8 0.8-1.8 1.8v5.6c0 1 0.8 1.8 1.8 1.8l0 0c1 0 1.8-0.8 1.8-1.8v-5.6C-199.3 404.3-200.1 403.4-201.1 403.4z" fill="#bb84e8" data-fill-palette-color="accent"></path><path d="M-184.8 403.4c-1 0-1.8 0.8-1.8 1.8v5.6c0 1 0.8 1.8 1.8 1.8s1.8-0.8 1.8-1.8v-5.6C-182.9 404.3-183.8 403.4-184.8 403.4z" fill="#bb84e8" data-fill-palette-color="accent"></path><path d="M-181.9 408.1v2.8c0 1.6-1.3 2.9-2.9 2.9s-2.9-1.3-2.9-2.9v-3h-2.4v3c0 1.6-1.3 2.9-2.9 2.9s-2.9-1.3-2.9-2.9v-3h-2.4v3c0 1.6-1.3 2.9-2.9 2.9s-2.9-1.3-2.9-2.9v-2.8c-1.9 0.5-3.4 2.3-3.4 4.3v19.8c0 2.5 2 4.5 4.5 4.5h19.8c2.5 0 4.5-2 4.5-4.5v-19.8C-178.6 410.3-180 408.6-181.9 408.1zM-190.2 431.1c0 0.7-0.6 1.2-1.2 1.2h-11.4c-0.7 0-1.2-0.6-1.2-1.2v-11.8c0-0.7 0.6-1.2 1.2-1.2h11.4c0.7 0 1.2 0.6 1.2 1.2V431.1zM-181.8 431.1c0 0.7-0.6 1.2-1.2 1.2h-3c-0.7 0-1.2-0.6-1.2-1.2v-3c0-0.7 0.6-1.2 1.2-1.2h3c0.7 0 1.2 0.6 1.2 1.2V431.1zM-181.8 422.3c0 0.7-0.6 1.2-1.2 1.2h-3c-0.7 0-1.2-0.6-1.2-1.2v-3c0-0.7 0.6-1.2 1.2-1.2h3c0.7 0 1.2 0.6 1.2 1.2V422.3z" fill="#bb84e8" data-fill-palette-color="accent"></path><path d="M-192.1 423c0-0.1 0-0.2-0.1-0.3l-1.2-1.3c-0.1-0.1-0.2-0.1-0.3-0.1-0.1 0-0.2 0-0.3 0.1l-4.2 4.1-1.6-1.9c-0.1-0.1-0.2-0.2-0.3-0.2-0.1 0-0.2 0-0.3 0.1l-1.3 1.1c-0.1 0.1-0.1 0.2-0.2 0.3 0 0.1 0 0.2 0.1 0.3l3.1 3.7c0 0 0 0 0 0 0.1 0.1 0.2 0.1 0.3 0.1 0.1 0 0.2 0 0.3-0.1 0 0 0 0 0 0l5.9-5.8C-192.1 423.2-192.1 423.1-192.1 423z" fill="#bb84e8" data-fill-palette-color="accent"></path></svg></g></svg></g><g></g></svg></g></svg></g><g><path d="M156.514 39.588A93.591 93.591 0 0 1 239.006 39.588L236.092 39.588A90.677 90.677 0 0 0 159.428 39.588L156.514 39.588M156.514 207.612A93.591 93.591 0 0 0 239.006 207.612L236.092 207.612A90.677 90.677 0 0 1 159.428 207.612L156.514 207.612" fill="#6936f5" stroke="transparent" data-fill-palette-color="tertiary"></path></g></svg></g><defs></defs></svg><rect width="395.52" height="247.2" fill="none" stroke="none" visibility="hidden"></rect></g></svg></g></svg>